<svg xmlns="http://www.w3.org/2000/svg" width="900" height="675" viewBox="0 0 900 675" role="img" aria-label="Camisa Oficial Brasil Nike Torcedor 2026">
  <defs>
    <linearGradient id="g" x1="0" x2="1" y1="0" y2="1">
      <stop stop-color="#f8d934"/>
      <stop offset="1" stop-color="#c09200"/>
    </linearGradient>
    <filter id="s" x="-20%" y="-20%" width="140%" height="140%">
      <feDropShadow dx="0" dy="24" stdDeviation="24" flood-color="#000" flood-opacity=".24"/>
    </filter>
  </defs>
  <rect width="900" height="675" fill="url(#g)"/>
  <circle cx="760" cy="108" r="180" fill="#fff" opacity=".08"/>
  <circle cx="130" cy="570" r="210" fill="#fff" opacity=".08"/>
  <rect x="82" y="74" width="220" height="52" rx="18" fill="#fff" opacity=".94"/>
  <text x="192" y="108" text-anchor="middle" font-family="Arial, Helvetica, sans-serif" font-size="26" font-weight="800" fill="#111827">Mercado Livre</text>
  <g transform="translate(322 176)" filter="url(#s)">
    <rect width="256" height="256" rx="44" fill="#fff" opacity=".18" stroke="#fff" stroke-opacity=".38" stroke-width="3"/>
    <g transform="translate(0 0)"><path fill="none" stroke="white" stroke-width="9" stroke-linecap="round" stroke-linejoin="round" d="M88 54 54 78l28 42 18-12v102h56V108l18 12 28-42-34-24-20 18h-40L88 54Z"/></g>
  </g>
  <rect x="82" y="492" width="736" height="104" rx="22" fill="#fff" opacity=".92"/>
  <text x="122" y="544" font-family="Arial, Helvetica, sans-serif" font-size="32" font-weight="800" fill="#111827">Camisa Oficial Brasil Nike Torcedor 2026</text>
</svg>