<svg xmlns="http://www.w3.org/2000/svg" width="900" height="675" viewBox="0 0 900 675" role="img" aria-label="Fone QCY T13 TWS Original">
  <defs>
    <linearGradient id="bg" x1="0" x2="1" y1="0" y2="1"><stop stop-color="#f8fafc"/><stop offset="1" stop-color="#fed7aa"/></linearGradient>
    <linearGradient id="case" x1="0" x2="1" y1="0" y2="1"><stop stop-color="#111827"/><stop offset="1" stop-color="#020617"/></linearGradient>
    <filter id="shadow"><feDropShadow dx="0" dy="30" stdDeviation="28" flood-color="#111827" flood-opacity=".26"/></filter>
  </defs>
  <rect width="900" height="675" fill="url(#bg)"/>
  <rect x="64" y="54" width="154" height="48" rx="16" fill="#f97316"/>
  <text x="141" y="86" text-anchor="middle" font-family="Arial, Helvetica, sans-serif" font-size="24" font-weight="900" fill="#fff">SHOPEE</text>
  <circle cx="742" cy="128" r="160" fill="#f97316" opacity=".18"/>
  <g filter="url(#shadow)">
    <rect x="252" y="270" width="396" height="162" rx="78" fill="url(#case)"/>
    <rect x="292" y="304" width="316" height="82" rx="41" fill="#1f2937"/>
    <ellipse cx="378" cy="338" rx="54" ry="44" fill="#020617"/>
    <ellipse cx="522" cy="338" rx="54" ry="44" fill="#020617"/>
    <path d="M340 216c0-58 40-94 86-82 34 9 56 40 56 80v74h-68v-66c0-13-8-22-20-22s-20 9-20 22v94h-34V216Z" fill="#111827"/>
    <path d="M560 216c0-58-40-94-86-82-34 9-56 40-56 80v74h68v-66c0-13 8-22 20-22s20 9 20 22v94h34V216Z" fill="#111827"/>
    <circle cx="394" cy="338" r="20" fill="#fff"/>
    <circle cx="506" cy="338" r="20" fill="#fff"/>
    <path d="M360 472h180" stroke="#f97316" stroke-width="16" stroke-linecap="round"/>
  </g>
  <text x="450" y="565" text-anchor="middle" font-family="Arial, Helvetica, sans-serif" font-size="34" font-weight="900" fill="#111827">Fone Bluetooth TWS</text>
</svg>
