<svg xmlns="http://www.w3.org/2000/svg" width="900" height="675" viewBox="0 0 900 675" role="img" aria-label="Air Fryer Mondial AFN-40 4L">
  <defs>
    <linearGradient id="bg" x1="0" x2="1" y1="0" y2="1"><stop stop-color="#fff7ed"/><stop offset="1" stop-color="#fed7aa"/></linearGradient>
    <linearGradient id="body" x1="0" x2="1" y1="0" y2="1"><stop stop-color="#2b3038"/><stop offset=".55" stop-color="#111827"/><stop offset="1" stop-color="#030712"/></linearGradient>
    <linearGradient id="steel" x1="0" x2="1"><stop stop-color="#e5e7eb"/><stop offset=".5" stop-color="#ffffff"/><stop offset="1" stop-color="#9ca3af"/></linearGradient>
    <filter id="shadow"><feDropShadow dx="0" dy="28" stdDeviation="28" flood-color="#7c2d12" flood-opacity=".28"/></filter>
  </defs>
  <rect width="900" height="675" fill="url(#bg)"/>
  <circle cx="730" cy="110" r="160" fill="#fb923c" opacity=".22"/>
  <circle cx="145" cy="555" r="210" fill="#f97316" opacity=".18"/>
  <rect x="64" y="54" width="154" height="48" rx="16" fill="#f97316"/>
  <text x="141" y="86" text-anchor="middle" font-family="Arial, Helvetica, sans-serif" font-size="24" font-weight="900" fill="#fff">SHOPEE</text>
  <g filter="url(#shadow)">
    <rect x="248" y="118" width="404" height="420" rx="58" fill="url(#body)"/>
    <rect x="284" y="154" width="332" height="124" rx="30" fill="url(#steel)"/>
    <rect x="310" y="184" width="280" height="64" rx="18" fill="#111827"/>
    <circle cx="376" cy="216" r="18" fill="#fb923c"/>
    <circle cx="450" cy="216" r="18" fill="#22c55e"/>
    <circle cx="524" cy="216" r="18" fill="#60a5fa"/>
    <rect x="292" y="326" width="316" height="132" rx="34" fill="#0f172a" stroke="#4b5563" stroke-width="8"/>
    <rect x="344" y="352" width="212" height="44" rx="22" fill="#1f2937" stroke="#6b7280" stroke-width="6"/>
    <path d="M332 502h236" stroke="#f97316" stroke-width="18" stroke-linecap="round"/>
  </g>
  <text x="450" y="610" text-anchor="middle" font-family="Arial, Helvetica, sans-serif" font-size="34" font-weight="900" fill="#111827">Air Fryer 4L</text>
</svg>
