<svg xmlns="http://www.w3.org/2000/svg" width="900" height="675" viewBox="0 0 900 675" role="img" aria-label="Aspirador Vertical Britania 2 em 1 1200W">
  <defs>
    <linearGradient id="bg" x1="0" x2="1" y1="0" y2="1"><stop stop-color="#f8fafc"/><stop offset="1" stop-color="#fed7aa"/></linearGradient>
    <linearGradient id="red" x1="0" x2="1" y1="0" y2="1"><stop stop-color="#ef4444"/><stop offset="1" stop-color="#991b1b"/></linearGradient>
    <filter id="shadow"><feDropShadow dx="0" dy="28" stdDeviation="28" flood-color="#450a0a" flood-opacity=".28"/></filter>
  </defs>
  <rect width="900" height="675" fill="url(#bg)"/>
  <rect x="64" y="54" width="154" height="48" rx="16" fill="#f97316"/>
  <text x="141" y="86" text-anchor="middle" font-family="Arial, Helvetica, sans-serif" font-size="24" font-weight="900" fill="#fff">SHOPEE</text>
  <circle cx="745" cy="125" r="160" fill="#f97316" opacity=".18"/>
  <g filter="url(#shadow)">
    <path d="M534 112c38 0 70 32 70 70v38H464v-38c0-38 32-70 70-70Z" fill="#111827"/>
    <rect x="486" y="198" width="96" height="236" rx="42" fill="url(#red)"/>
    <rect x="508" y="224" width="52" height="86" rx="20" fill="#fff" opacity=".88"/>
    <path d="M534 426 404 546" stroke="#111827" stroke-width="42" stroke-linecap="round"/>
    <path d="M404 546h-132c-28 0-50-22-50-50v-18h238v18c0 28-22 50-50 50h-6Z" fill="#111827"/>
    <rect x="258" y="456" width="196" height="50" rx="22" fill="url(#red)"/>
    <path d="M586 142h84" stroke="#111827" stroke-width="26" stroke-linecap="round"/>
    <circle cx="534" cy="358" r="30" fill="#fff" opacity=".85"/>
  </g>
  <text x="450" y="610" text-anchor="middle" font-family="Arial, Helvetica, sans-serif" font-size="34" font-weight="900" fill="#111827">Aspirador Vertical 2 em 1</text>
</svg>
